<?xml version="1.0" encoding="utf-8"?>
<!-- Generator: Adobe Illustrator 21.1.0, SVG Export Plug-In . SVG Version: 6.00 Build 0)  -->
<svg version="1.1" id="Layer_1" xmlns="http://www.w3.org/2000/svg" xmlns:xlink="http://www.w3.org/1999/xlink" x="0px" y="0px"
	 viewBox="0 0 24 20" style="enable-background:new 0 0 24 20;" xml:space="preserve">
<style type="text/css">
	.st0{filter:url(#Adobe_OpacityMaskFilter);}
	.st1{fill:#FFFFFF;}
	.st2{mask:url(#b);}
</style>
<g>
	<defs>
		<filter id="Adobe_OpacityMaskFilter" filterUnits="userSpaceOnUse" x="0" y="0" width="24" height="20">
			<feColorMatrix  type="matrix" values="1 0 0 0 0  0 1 0 0 0  0 0 1 0 0  0 0 0 1 0"/>
		</filter>
	</defs>
	<mask maskUnits="userSpaceOnUse" x="0" y="0" width="24" height="20" id="b">
		<g class="st0">
			<path id="a" class="st1" d="M0,0h24v20H0V0z"/>
		</g>
	</mask>
	<path class="st2" d="M23,8.3H5.9l5.6-5.6c0.2-0.2,0.3-0.5,0.3-0.8c0-0.3-0.1-0.6-0.3-0.8l-0.8-0.8C10.5,0.1,10.2,0,9.9,0
		C9.6,0,9.4,0.1,9.1,0.3L0.3,9.2C0.1,9.4,0,9.7,0,10c0,0.3,0.1,0.6,0.3,0.8l8.8,8.9C9.4,19.9,9.6,20,9.9,20c0.3,0,0.6-0.1,0.8-0.3
		l0.8-0.8c0.2-0.2,0.3-0.5,0.3-0.8c0-0.3-0.1-0.5-0.3-0.8l-5.6-5.7h17c0.6,0,1.1-0.5,1.1-1.1V9.4C24,8.8,23.6,8.4,23,8.3"/>
</g>
</svg>
