<?xml version="1.0" encoding="utf-8"?>
<!-- Generator: Adobe Illustrator 21.1.0, SVG Export Plug-In . SVG Version: 6.00 Build 0)  -->
<svg version="1.1" id="Layer_1" xmlns="http://www.w3.org/2000/svg" xmlns:xlink="http://www.w3.org/1999/xlink" x="0px" y="0px"
	 viewBox="0 0 2 4" style="enable-background:new 0 0 2 4;" xml:space="preserve">
<path d="M1.9,2.2L0.4,3.9C0.3,4,0.2,4,0.1,3.9c0,0,0,0,0,0C0,3.8,0,3.6,0.1,3.5L1.4,2L0.1,0.5C0,0.4,0,0.2,0.1,0.1
	C0.2,0,0.3,0,0.4,0.1c0,0,0,0,0,0l1.5,1.7C2,1.9,2,1.9,2,2C2,2.1,2,2.1,1.9,2.2z"/>
</svg>
