<?xml version="1.0" encoding="utf-8"?>
<!-- Generator: Adobe Illustrator 21.1.0, SVG Export Plug-In . SVG Version: 6.00 Build 0)  -->
<svg version="1.1" id="Layer_1" xmlns="http://www.w3.org/2000/svg" xmlns:xlink="http://www.w3.org/1999/xlink" x="0px" y="0px"
	 viewBox="0 0 23 18" style="enable-background:new 0 0 23 18;" xml:space="preserve">
<g>
	<path d="M20.5,18c0.5,0,0.9-0.2,1.3-0.5L15.4,11L15,11.3c-0.5,0.4-0.9,0.6-1.2,0.8c-0.3,0.2-0.7,0.4-1.2,0.6
		c-0.5,0.2-1,0.3-1.4,0.3h0c-0.4,0-0.9-0.1-1.4-0.3c-0.4-0.2-0.8-0.4-1.2-0.6C8.4,12,8,11.7,7.5,11.3c-0.1-0.1-0.3-0.2-0.4-0.3
		l-6.4,6.5C1.1,17.8,1.5,18,2,18L20.5,18L20.5,18z M1.3,6.9C0.8,6.6,0.4,6.2,0,5.8v9.9L5.6,10C4.2,8.9,2.7,7.9,1.3,6.9L1.3,6.9z
		 M21.2,6.9c-1.5,1-2.9,2-4.4,3l5.6,5.7V5.8C22.1,6.2,21.7,6.6,21.2,6.9z"/>
	<path d="M20.5,0H2C1.4,0,0.9,0.2,0.5,0.7C0.2,1.1,0,1.7,0,2.3c0,0.5,0.2,1.1,0.7,1.7s0.9,1.1,1.5,1.5c0.3,0.2,1.1,0.8,2.6,1.8
		C5.8,8.1,6.9,8.9,8,9.7l0.2,0.1l0.3,0.3c0.3,0.2,0.5,0.4,0.7,0.5s0.4,0.3,0.7,0.4c0.3,0.2,0.5,0.3,0.7,0.3c0.2,0.1,0.4,0.1,0.6,0.1
		h0c0.2,0,0.4,0,0.6-0.1s0.5-0.2,0.7-0.3c0.3-0.2,0.5-0.3,0.7-0.4c0.2-0.1,0.4-0.3,0.7-0.5c0.2-0.1,0.4-0.3,0.5-0.4l1.3-0.9
		c1-0.7,2.6-1.8,4.6-3.3c0.6-0.4,1.1-1,1.5-1.6c0.4-0.6,0.6-1.3,0.6-1.9c0-0.6-0.2-1-0.6-1.4C21.5,0.2,21,0,20.5,0L20.5,0z"/>
</g>
</svg>
