<?xml version="1.0" encoding="utf-8"?>
<!-- Generator: Adobe Illustrator 21.1.0, SVG Export Plug-In . SVG Version: 6.00 Build 0)  -->
<svg version="1.1" id="Layer_1" xmlns="http://www.w3.org/2000/svg" xmlns:xlink="http://www.w3.org/1999/xlink" x="0px" y="0px"
	 viewBox="0 0 31 22" style="enable-background:new 0 0 31 22;" xml:space="preserve">
<path d="M30,1.8h-2V1.2c0-0.3-0.2-0.5-0.4-0.6C26.1,0.2,24.7,0,23.3,0c-2.4,0-5.6,0.5-8,3c-2.4-2.5-5.6-3-8-3C5.8,0,4.4,0.2,3,0.6
	C2.8,0.6,2.6,0.9,2.6,1.2v0.7h-2C0.3,1.8,0,2.1,0,2.4v18.9C0,21.7,0.3,22,0.6,22c0.1,0,0.2,0,0.3-0.1c0.1,0,6-3.3,14.3-1.2h0.1
	c0,0,0.1,0,0.1,0c8.3-2.1,14.2,1.1,14.3,1.2c0.3,0.2,0.6,0.1,0.8-0.2c0.1-0.1,0.1-0.2,0.1-0.3V2.4C30.6,2.1,30.3,1.8,30,1.8L30,1.8z
	 M1.2,20.4V3h1.4v14.9c0,0.3,0.3,0.6,0.6,0.6c0,0,0.1,0,0.1,0c1.2-0.2,2.5-0.3,3.7-0.3c1.7,0,3.4,0.2,5.1,0.8
	C8.4,18.5,4.6,19,1.2,20.4L1.2,20.4z M7,17c-1.1,0-2.2,0.1-3.2,0.2V1.6c1.2-0.3,2.3-0.4,3.5-0.4c2.2,0,5.3,0.5,7.4,2.9l0,14.8
	C13.5,18.1,11.1,17,7,17L7,17z M15.9,4.1c2.1-2.4,5.2-2.9,7.4-2.9c1.2,0,2.4,0.1,3.5,0.4v15.6c-1.1-0.1-2.1-0.2-3.2-0.2
	c-4,0-6.5,1.1-7.7,1.9L15.9,4.1L15.9,4.1z M29.4,20.4c-3.4-1.4-7.2-1.9-10.9-1.5c1.6-0.5,3.4-0.8,5.1-0.8c1.2,0,2.5,0.1,3.7,0.3
	c0.3,0,0.6-0.2,0.7-0.5c0,0,0-0.1,0-0.1V3h1.4C29.4,3,29.4,20.4,29.4,20.4z"/>
</svg>
