<?xml version="1.0" encoding="utf-8"?>
<!-- Generator: Adobe Illustrator 21.1.0, SVG Export Plug-In . SVG Version: 6.00 Build 0)  -->
<svg version="1.1" id="Layer_1" xmlns="http://www.w3.org/2000/svg" xmlns:xlink="http://www.w3.org/1999/xlink" x="0px" y="0px"
	 viewBox="0 0 68 80" style="enable-background:new 0 0 68 80;" xml:space="preserve">
<style type="text/css">
	.st0{fill:none;}
</style>
<path d="M66.6,25.2l-1.5-4.6v-1.2c0-10.3-8-18.7-17.9-18.7H28.7C16.2,0.7,6.1,11.3,6.1,24.3v8c0,4,1.7,7.9,4.6,10.6
	c1.6,1.5,2.7,3.4,3.2,5.5l0.5,2.1c0.8,3,0.7,6.2-0.1,9.2L9.5,77.4c-0.1,0.5,0,0.9,0.3,1.3c0.3,0.4,0.7,0.6,1.2,0.6h45
	c0.5,0,0.9-0.2,1.2-0.6c0.3-0.4,0.4-0.8,0.3-1.3l-4.8-20.8h1.7c3,0,5.8-1.5,7.4-4.1l2.4-3.7c0.8-1.2,1.2-2.6,1.2-4v-7.5
	c0-1.2,0.3-2.5,0.8-3.6l0.1-0.2C67.3,30.9,67.5,27.9,66.6,25.2L66.6,25.2z M30.1,76c0,0.1,0,0.2-0.1,0.2c-0.1,0.1-0.2,0.1-0.2,0.1
	l-5.3-0.5c-0.2,0-0.3-0.2-0.3-0.4l0.5-5.3c0-0.1,0.1-0.2,0.1-0.2c0.1-0.1,0.2-0.1,0.2-0.1l0.6,0.1l0.7,0.1l4.1,0.4
	c0.2,0,0.3,0.2,0.3,0.4L30.1,76L30.1,76z M30.3,64.2L30.1,67c0,0,0,0.1-0.1,0.1c0,0-0.1,0-0.1,0l-0.7-0.1l-3.5-0.3
	c0,0-0.1,0-0.1-0.1c0,0,0-0.1,0-0.1l0.2-2.8v0v0l0.2-2.8c0-0.1,0.1-0.2,0.2-0.2l1.2,0.1l2.4,0.2l0.5,0c0,0,0.1,0,0.1,0.1
	c0,0,0,0.1,0,0.1C30.6,61.4,30.3,64.2,30.3,64.2z M30.4,55.1l-0.3,3L28.4,58l-1.3-0.1l0.5-6l3,0.3L30.4,55.1L30.4,55.1z M63.4,32.3
	l-0.1,0.2c-0.7,1.5-1.1,3.2-1.1,4.9v7.5c0,0.8-0.2,1.7-0.7,2.4l-2.4,3.7c-1.1,1.7-2.9,2.7-4.9,2.7h-3.5c-0.5,0-0.9,0.2-1.2,0.6
	c-0.3,0.4-0.4,0.8-0.3,1.3l4.8,20.8H33c0,0,0,0,0,0l0.1-1.2l1.5,0.1c0.8,0.1,1.6-0.5,1.6-1.4c0,0,0,0,0,0c0.1-0.8-0.5-1.6-1.4-1.6
	l-1.5-0.1l0.1-1.2c0.1-0.9-0.2-1.8-0.8-2.4c0.2-0.3,0.3-0.7,0.3-1.1l0.1-1.3l1.5,0.1c0.8,0.1,1.6-0.5,1.6-1.4c0,0,0,0,0,0
	c0.1-0.8-0.5-1.6-1.4-1.6L33.4,63l0.1-1.3c0.1-0.8-0.2-1.7-0.7-2.3c0.1-0.3,0.2-0.6,0.2-0.9l0.1-1.5l1.5,0.1
	c0.8,0.1,1.6-0.5,1.6-1.4c0,0,0,0,0,0c0.1-0.8-0.5-1.6-1.4-1.6l-1.5-0.1l0.1-1.5c0.1-0.8-0.2-1.6-0.7-2.2c-0.5-0.6-1.2-1-2-1.1l0,0
	l0.1-1.2c0.1-0.8-0.5-1.6-1.4-1.6c-0.8-0.1-1.6,0.5-1.6,1.4c0,0,0,0,0,0l-0.1,1.2l0,0c-0.8-0.1-1.6,0.2-2.2,0.7c-0.6,0.5-1,1.2-1,2
	l-0.1,1.5L23,52.9c-0.8-0.1-1.6,0.5-1.6,1.4c0,0,0,0,0,0c-0.1,0.8,0.5,1.6,1.4,1.6l1.5,0.1l-0.1,1.5c0,0.3,0,0.6,0.1,1
	c-0.6,0.5-1,1.3-1.1,2.1L23,62l-1.5-0.1c-0.8-0.1-1.6,0.5-1.6,1.4c0,0,0,0,0,0c-0.1,0.8,0.5,1.6,1.4,1.6l1.5,0.1l-0.1,1.3
	c0,0.4,0,0.8,0.1,1.2c-0.7,0.6-1.1,1.4-1.2,2.3L21.5,71L20,70.9c-0.8-0.1-1.6,0.5-1.6,1.4c0,0,0,0,0,0c-0.1,0.8,0.5,1.6,1.4,1.6
	l1.5,0.1l-0.1,1.2c0,0.4,0,0.7,0.1,1.1h-8.3l4.3-15.8c1-3.5,1-7.3,0.1-10.8l-0.5-2.1c-0.7-2.7-2.1-5.1-4.1-7
	C10.4,38.5,9,35.5,9,32.3v-8C9,13,17.9,3.7,28.7,3.7h18.5c8.2,0,14.9,7,14.9,15.6v1.4c0,0.2,0,0.3,0.1,0.5l1.5,4.8
	C64.4,28.1,64.3,30.3,63.4,32.3z"/>
<path d="M8.1,54.8H2.3c-0.8,0-1.5,0.8-1.5,1.7c0,1,0.7,1.7,1.5,1.7h5.8c0.8,0,1.5-0.8,1.5-1.7C9.5,55.6,8.9,54.8,8.1,54.8z M9,48.4
	l-3.5-3.5c-0.7-0.7-1.8-0.7-2.5,0c-0.7,0.7-0.7,1.8,0,2.5c0,0,0,0,0,0l3.5,3.5c0.3,0.3,0.8,0.5,1.2,0.5c0.4,0,0.9-0.2,1.2-0.5
	C9.7,50.2,9.7,49.1,9,48.4z M9,62.3c-0.7-0.7-1.8-0.7-2.5,0l-3.5,3.5c-0.7,0.7-0.6,1.8,0.1,2.5c0.7,0.6,1.7,0.6,2.4,0L9,64.8
	C9.7,64.1,9.7,63,9,62.3z"/>
<rect id="_x3C_Slice_x3E_" x="77" y="0" class="st0" width="62" height="80"/>
</svg>
