<?xml version="1.0" encoding="utf-8"?>
<!-- Generator: Adobe Illustrator 21.1.0, SVG Export Plug-In . SVG Version: 6.00 Build 0)  -->
<svg version="1.1" id="Layer_1" xmlns="http://www.w3.org/2000/svg" xmlns:xlink="http://www.w3.org/1999/xlink" x="0px" y="0px"
	 viewBox="0 0 68 84" style="enable-background:new 0 0 68 84;" xml:space="preserve">
<g>
	<path d="M64.6,69.3c0-2.8-1.8-5.3-4.4-6.2l-0.8-0.3V51.3l0.8-0.3c2.6-0.9,4.4-3.4,4.4-6.2c0-2.8-1.8-5.3-4.4-6.2l-0.8-0.3V25.1
		l0.8-0.3c2.6-0.9,4.4-3.4,4.4-6.2l0,0c0-2.8-1.8-5.3-4.4-6.2l-0.8-0.3V4.6c0-0.8-0.6-1.4-1.4-1.4H31.8c-0.8,0-1.4,0.6-1.4,1.4v7.4
		l-0.8,0.3c-2.6,0.9-4.4,3.4-4.4,6.2c0,2.8,1.8,5.3,4.4,6.2l0.8,0.3v13.2l-0.8,0.3c-2.6,0.9-4.4,3.4-4.4,6.2c0,2.8,1.8,5.3,4.4,6.2
		l0.8,0.3v11.4L29.6,63c-2.6,0.9-4.4,3.4-4.4,6.2c0,2.8,1.8,5.3,4.4,6.2l0.8,0.3v4c0,0.8,0.6,1.4,1.4,1.4H58c0.8,0,1.4-0.6,1.4-1.4
		v-4l0.8-0.3C62.9,74.6,64.6,72.1,64.6,69.3z M27.9,18.6c0-2.1,1.7-3.9,3.9-3.9c0,0,0,0,0,0c0.8,0,1.4-0.6,1.4-1.4V6h23.5v7.4
		c0,0.8,0.6,1.4,1.4,1.4c2.1,0,3.9,1.7,3.9,3.9c0,2.1-1.7,3.9-3.9,3.9l0,0c-0.8,0-1.4,0.6-1.4,1.4v3.9H33.2v-3.9
		c0-0.8-0.6-1.4-1.4-1.4C29.7,22.5,27.9,20.7,27.9,18.6z M27.9,44.8c0-2.1,1.7-3.9,3.9-3.9c0,0,0,0,0,0c0.8,0,1.4-0.6,1.4-1.4v-9.1
		h23.5v9.1c0,0.8,0.6,1.4,1.4,1.4c2.1,0,3.9,1.7,3.9,3.9c0,2.1-1.7,3.9-3.9,3.9h0c-0.8,0-1.4,0.6-1.4,1.4v3.9H33.2v-3.9
		c0-0.4-0.1-0.7-0.4-1s-0.6-0.4-1-0.4C29.7,48.7,27.9,46.9,27.9,44.8z M58,73.2L58,73.2c-0.8,0-1.4,0.6-1.4,1.4v3.9H33.2v-3.9
		c0-0.4-0.1-0.7-0.4-1c-0.3-0.3-0.6-0.4-1-0.4c-2.1,0-3.9-1.7-3.9-3.9c0-2.1,1.7-3.9,3.9-3.9h0c0.8,0,1.4-0.6,1.4-1.4v-7.4h23.5V64
		c0,0.8,0.6,1.4,1.4,1.4c2.1,0,3.9,1.7,3.9,3.9C61.9,71.4,60.1,73.2,58,73.2z"/>
	<polygon points="65.9,18.6 65.9,18.6 65.9,18.6 	"/>
</g>
<g>
	<path d="M44.2,65.8c0-1-0.8-1.9-1.9-1.9c-1,0-1.9,0.8-1.9,1.9v3.5c0,1,0.8,1.9,1.9,1.9s1.9-0.8,1.9-1.9V65.8z"/>
	<path d="M42.3,37l0,0.7c-1,0-1.9,0.8-1.9,1.9v5.2c0,1,0.8,1.9,1.9,1.9s1.9-0.8,1.9-1.9v-5.2c0-1-0.8-1.9-1.9-1.9V37L42.3,37z"/>
	<path d="M42.3,13.2c-1,0-1.9,0.8-1.9,1.9v3.5c0,1,0.8,1.9,1.9,1.9s1.9-0.8,1.9-1.9v-3.5C44.2,14.1,43.3,13.2,42.3,13.2l0-0.7
		L42.3,13.2z"/>
</g>
<g>
	<path d="M2.6,37.1l3.7,3.7c0.6,0.6,1.7,0.6,2.3,0l2.6-2.6l2.6,2.6c0.6,0.6,1.7,0.6,2.3,0c0.3-0.3,0.5-0.7,0.5-1.1s-0.2-0.8-0.5-1.1
		v0l-3.7-3.7c-0.6-0.6-1.7-0.6-2.3,0l-2.6,2.6l-2.6-2.6c-0.3-0.3-0.7-0.4-1.1-0.4c0,0,0,0,0,0c-0.4,0-0.8,0.2-1.1,0.5
		C2,35.5,2,36.5,2.6,37.1z"/>
	<path d="M18,65.9c0-0.4-0.2-0.8-0.5-1.1L15,62.2l2.6-2.6c0.3-0.3,0.4-0.7,0.4-1.1c0-0.4-0.2-0.8-0.5-1.1s-0.7-0.4-1.1-0.4
		s-0.8,0.1-1.1,0.4L11.5,61c-0.6,0.6-0.6,1.7,0,2.3l2.6,2.6l-2.6,2.6c-0.6,0.6-0.6,1.7,0,2.3c0.6,0.6,1.7,0.6,2.3,0l3.7-3.7
		C17.8,66.7,18,66.3,18,65.9z"/>
	<path d="M9.3,55.2c0.4,0,0.8-0.2,1.1-0.5c0.3-0.3,0.5-0.7,0.5-1.1v-3.6h3.6c0.9,0,1.6-0.7,1.6-1.6c0-0.9-0.7-1.6-1.6-1.6H9.3
		c0,0,0,0,0,0c-0.4,0-0.8,0.2-1.1,0.5c-0.3,0.3-0.5,0.7-0.5,1.1v3.6H4.1c-0.9,0-1.6,0.7-1.6,1.6s0.7,1.6,1.6,1.6H9.3z"/>
	<path d="M14.5,29h3.6v3.6c0,0.9,0.7,1.6,1.6,1.6c0.9,0,1.6-0.7,1.6-1.6v-5.2c0-0.9-0.7-1.6-1.6-1.6h-3.7v-3.6
		c0-0.9-0.7-1.6-1.6-1.6c-0.9,0-1.6,0.7-1.6,1.6v5.2C12.9,28.2,13.6,29,14.5,29z"/>
</g>
</svg>
