<?xml version="1.0" encoding="utf-8"?>
<!-- Generator: Adobe Illustrator 21.1.0, SVG Export Plug-In . SVG Version: 6.00 Build 0)  -->
<svg version="1.1" id="Layer_1" xmlns="http://www.w3.org/2000/svg" xmlns:xlink="http://www.w3.org/1999/xlink" x="0px" y="0px"
	 viewBox="0 0 28 28" style="enable-background:new 0 0 28 28;" xml:space="preserve">
<path d="M16.5,14l11-11c0.7-0.7,0.7-1.8,0-2.5s-1.8-0.7-2.5,0c0,0,0,0,0,0l-11,11L3,0.5c-0.7-0.7-1.8-0.7-2.5,0s-0.7,1.8,0,2.5
	c0,0,0,0,0,0l11,11l-11,11c-0.7,0.7-0.7,1.8-0.1,2.5s1.8,0.7,2.5,0.1c0,0,0,0,0.1-0.1l11-11l11,11c0.7,0.7,1.8,0.7,2.5,0
	c0,0,0,0,0,0c0.7-0.7,0.7-1.8,0-2.5c0,0,0,0,0,0L16.5,14z"/>
</svg>
