<?xml version="1.0" encoding="utf-8"?>
<!-- Generator: Adobe Illustrator 21.1.0, SVG Export Plug-In . SVG Version: 6.00 Build 0)  -->
<svg version="1.1" id="Layer_1" xmlns="http://www.w3.org/2000/svg" xmlns:xlink="http://www.w3.org/1999/xlink" x="0px" y="0px"
	 viewBox="0 0 111 109" style="enable-background:new 0 0 111 109;" xml:space="preserve">
<style type="text/css">
	.st0{filter:url(#Adobe_OpacityMaskFilter);}
	.st1{fill:#FFFFFF;}
	.st2{mask:url(#c);}
	.st3{filter:url(#Adobe_OpacityMaskFilter_1_);}
	.st4{mask:url(#e);}
</style>
<path d="M35.6,57c0.9,0,1.6-0.7,1.6-1.6v-14c0-3.5,2.2-6.5,5.5-7.4c8.9-2.5,17.9-2.5,26.8,0c3.2,0.9,5.5,4,5.5,7.4V53
	c0,0.9,0.7,1.6,1.6,1.6c0.9,0,1.6-0.7,1.6-1.6V41.4c0-4.9-3.2-9.2-7.8-10.5c-9.5-2.6-19-2.6-28.5,0c-4.6,1.3-7.8,5.6-7.8,10.5v14
	C34,56.3,34.7,57,35.6,57"/>
<path d="M66,43.6v7.8c0,0.9,0.7,1.6,1.5,1.6s1.5-0.7,1.5-1.6v-7.8c0-0.9-0.7-1.6-1.5-1.6S66,42.7,66,43.6 M40,43.6v10.9
	c0,0.9,0.7,1.6,1.5,1.6s1.5-0.7,1.5-1.6V43.6c0-0.9-0.7-1.6-1.5-1.6S40,42.7,40,43.6"/>
<g transform="translate(0 67)">
	<defs>
		<filter id="Adobe_OpacityMaskFilter" filterUnits="userSpaceOnUse" x="0" y="0.1" width="110.2" height="41.5">
			<feColorMatrix  type="matrix" values="1 0 0 0 0  0 1 0 0 0  0 0 1 0 0  0 0 0 1 0"/>
		</filter>
	</defs>
	<mask maskUnits="userSpaceOnUse" x="0" y="0.1" width="110.2" height="41.5" id="c">
		<g class="st0">
			<path id="b" class="st1" d="M0,0.1h110.2v41.5H0V0.1z"/>
		</g>
	</mask>
	<path class="st2" d="M101.5,13.9H8.6c-3,0-5.4-2.4-5.4-5.3c0-2.9,2.4-5.3,5.4-5.3h92.9c3,0,5.4,2.4,5.4,5.3
		C107,11.5,104.5,13.9,101.5,13.9z M66.4,35.3c0,1.8-1.5,3.2-3.3,3.2c-1.8,0-3.3-1.4-3.3-3.2V17.1h6.5V35.3L66.4,35.3z M50.3,35.3
		c0,1.8-1.5,3.2-3.3,3.2s-3.3-1.4-3.3-3.2V17.1h6.5L50.3,35.3L50.3,35.3z M101.5,0.1H8.6C3.9,0.1,0,3.9,0,8.6c0,4.7,3.9,8.5,8.6,8.5
		h6v23c0,0.9,0.7,1.6,1.6,1.6c0.9,0,1.6-0.7,1.6-1.6v-23h22.8v18.2c0,3.5,2.9,6.3,6.5,6.3c3.6,0,6.5-2.8,6.5-6.3V17.1h3.2v18.2
		c0,3.5,2.9,6.3,6.5,6.3s6.5-2.8,6.5-6.3V17.1h22.8v23c0,0.9,0.7,1.6,1.6,1.6c0.9,0,1.6-0.7,1.6-1.6v-23h6c4.8,0,8.6-3.8,8.6-8.5
		C110.2,3.9,106.3,0.1,101.5,0.1L101.5,0.1z"/>
</g>
<path d="M96.6,66.9h-4.2c-4,0-7.3-3.3-7.3-7.3v-0.1c0-4,3.3-7.3,7.3-7.3h4.2c4,0,7.3,3.3,7.3,7.4C103.9,63.6,100.6,66.9,96.6,66.9
	 M96.6,49h-4.2C86.7,49,82,53.7,82,59.4v0.1C82,65.3,86.7,70,92.4,70h4.2c5.7,0,10.4-4.7,10.4-10.6C107,53.7,102.3,49,96.6,49
	 M73.3,66.9c1.5-1.1,2.3-2.9,2.3-4.8c0-1.9-0.9-3.6-2.3-4.8c-1.5-1.1-3.4-1.5-5.2-1.1l-20.8,5.2l-0.3-5c4.9-0.7,9.8-1.4,14.7-2.2
	l5.4-0.8c4.6-0.6,7.9,0,9.7,1.6c1.3,1.1,1.9,2.8,1.9,5C78.8,63.3,76.5,66.1,73.3,66.9 M44.4,65.5l24.5-6.1c0.9-0.2,1.8,0,2.5,0.5
	c0.7,0.5,1.1,1.4,1.1,2.3c0,1.5-1.1,2.7-2.6,2.9l-28.2,2.7C42.3,66.5,43.2,65.7,44.4,65.5 M9.2,63.2c0-2.1,1.7-3.9,3.9-3.9
	c10.1,0,20.6-1.1,30.8-2.5l0.3,5.4l-0.5,0.1c-2.4,0.6-4.3,2.4-5.1,4.7H13.1C11,67.1,9.2,65.3,9.2,63.2 M66.7,50.2l-5.5,0.8
	c-15.1,2.4-32.3,5-48.2,5.1c-3.9,0-7.1,3.2-7.1,7c0,3.9,3.2,7.1,7.1,7.1h25.3c0.1,0.1,0.1,0.2,0.2,0.3c0.3,0.3,0.8,0.4,1.2,0.4
	l7.8-0.7h24C77.4,70.2,82,65.6,82,60c0-3.1-1-5.7-3-7.4C76.4,50.3,72.3,49.5,66.7,50.2"/>
<g transform="translate(43)">
	<defs>
		<filter id="Adobe_OpacityMaskFilter_1_" filterUnits="userSpaceOnUse" x="0.3" y="0.1" width="23.8" height="28.7">
			<feColorMatrix  type="matrix" values="1 0 0 0 0  0 1 0 0 0  0 0 1 0 0  0 0 0 1 0"/>
		</filter>
	</defs>
	<mask maskUnits="userSpaceOnUse" x="0.3" y="0.1" width="23.8" height="28.7" id="e">
		<g class="st3">
			<path id="d" class="st1" d="M0.3,0.1h23.8v28.7H0.3V0.1z"/>
		</g>
	</mask>
	<path class="st4" d="M12.2,3.3c-4.7,0-8.8,5.6-8.8,12c0,6.9,0.4,10.2,8.8,10.2S21,22.2,21,15.3C21,8.9,16.9,3.3,12.2,3.3
		 M12.2,28.8c-11,0-11.9-5.8-11.9-13.5c0-8.3,5.5-15.2,11.9-15.2c6.5,0,11.9,7,11.9,15.2C24.1,23,23.2,28.8,12.2,28.8"/>
</g>
</svg>
