<?xml version="1.0" encoding="utf-8"?>
<!-- Generator: Adobe Illustrator 21.1.0, SVG Export Plug-In . SVG Version: 6.00 Build 0)  -->
<svg version="1.1" id="Layer_1" xmlns="http://www.w3.org/2000/svg" xmlns:xlink="http://www.w3.org/1999/xlink" x="0px" y="0px"
	 viewBox="0 0 79 79" style="enable-background:new 0 0 79 79;" xml:space="preserve">
<style type="text/css">
	.st0{fill:none;}
</style>
<path d="M74.8,24.5c-0.2-0.3-0.5-0.5-0.9-0.5c-0.4,0-0.7,0-1,0.3c-0.6,0.5-0.7,1.3-0.3,1.9c1.9,2.5,2.9,5.5,2.9,8.6
	c0,6.3-4,11.7-9.9,13.7c-0.5,0.2-0.9,0.7-1,1.2c-0.2,3.8-3.3,6.7-7,6.7c0,0,0,0,0,0c-1.8,0-3.5-0.7-4.8-1.9c-0.6-0.5-1.4-0.5-2,0.1
	l-0.1,0.1c-2.7,3.5-6.8,5.4-11.2,5.4c0,0,0,0,0,0c-4.3,0-8.3-1.9-11-5.2c-0.5-0.6-1.3-0.7-1.9-0.2c-1.4,1.2-3.3,1.8-5.1,1.8
	c0,0,0,0,0,0c-4.6,0-8.3-3.7-8.3-8.3c0-0.6,0.1-1.2,0.2-1.9c0.2-0.7-0.2-1.3-0.8-1.6c-5.5-2.2-9-7.4-9-13.3
	c0-6.4,4.3-12.1,10.3-13.8c0.4-0.1,0.8-0.4,0.9-0.9c1-2.8,3.7-4.7,6.6-4.7c1.1,0,2.2,0.2,3.1,0.7c0.3,0.2,0.7,0.2,1,0.1
	c0.3-0.1,0.6-0.4,0.8-0.7l0-0.1c2.3-5.2,7.4-8.5,13.1-8.5c5.1,0,9.8,2.7,12.4,7.2c0.3,0.6,1,0.8,1.7,0.6c0.9-0.3,1.9-0.5,2.8-0.5
	c0,0,0,0,0,0c4.6,0,8.3,3.7,8.3,8.3c0,0.2,0,0.4,0,0.6c0,0.6,0.3,1.2,1,1.4c1.2,0.4,2.3,0.9,3.3,1.5c0.3,0.2,0.7,0.3,1,0.2
	c0.4-0.1,0.7-0.3,0.9-0.6c0.4-0.6,0.2-1.5-0.4-1.9c-0.9-0.6-1.9-1.1-2.9-1.5c-0.1-6-5-10.9-11-10.9c-0.9,0-1.8,0.1-2.7,0.3
	c-3.2-4.8-8.5-7.6-14.2-7.6c-6.3,0-12,3.4-15,9c-1-0.3-2-0.5-3.1-0.5c0,0,0,0,0,0c-3.9,0-7.4,2.3-9,5.9c-3.3,1.1-6.1,3.1-8.2,5.9
	c-2.3,3-3.5,6.7-3.5,10.4c0,3.5,1,6.9,3,9.7c1.7,2.5,4,4.4,6.7,5.7c-0.1,0.4-0.1,0.9-0.1,1.3c0,6.1,4.9,11.1,11,11.1
	c2.1,0,4-0.6,5.8-1.6c3.2,3.4,7.7,5.3,12.3,5.3c0,0,0,0,0,0c4.7,0,9.2-2,12.4-5.4c1.6,1.2,3.6,1.8,5.6,1.8c0,0,0,0,0,0
	c4.8,0,9-3.6,9.7-8.4c6.7-2.5,11-8.8,11-16C78.2,31.1,77.1,27.5,74.8,24.5z"/>
<path class="st0" d="M10.4,71.7c-1.8,0-3.5,0.9-3.5,2c0,1.1,1.6,2,3.5,2c1.8,0,3.5-0.9,3.5-2C13.9,72.7,12.3,71.7,10.4,71.7z"/>
<path class="st0" d="M20.7,68.9c1.8,0,3.5-0.9,3.5-2c0-1.1-1.6-2-3.5-2c-1.8,0-3.5,0.9-3.5,2C17.2,67.9,18.8,68.9,20.7,68.9z"/>
<path d="M20.7,62.4C20.7,62.4,20.7,62.4,20.7,62.4L20.7,62.4c-3.4,0-6.2,2-6.2,4.5c0,2.5,2.8,4.5,6.2,4.5c3.4,0,6.2-2,6.2-4.5
	C26.9,64.4,24.1,62.4,20.7,62.4z M20.7,64.9c1.8,0,3.5,0.9,3.5,2c0,1.1-1.6,2-3.5,2c-1.8,0-3.5-0.9-3.5-2
	C17.2,65.8,18.8,64.9,20.7,64.9z"/>
<path d="M10.4,69.2c-3.4,0-6.2,2-6.2,4.5c0,2.5,2.8,4.5,6.2,4.5c3.4,0,6.2-2,6.2-4.5C16.6,71.2,13.9,69.2,10.4,69.2z M13.9,73.7
	c0,1.1-1.6,2-3.5,2c-1.8,0-3.5-0.9-3.5-2c0-1.1,1.6-2,3.5-2C12.3,71.7,13.9,72.7,13.9,73.7z"/>
<g>
	<path d="M44.3,32.8h-3.4l4.6-6c0.3-0.4,0.3-0.9,0.1-1.3c-0.2-0.5-0.7-0.8-1.3-0.8h-6.2c-0.8,0-1.4,0.6-1.4,1.3
		c0,0.7,0.6,1.3,1.4,1.3h3.4l-4.6,6c-0.3,0.4-0.4,1-0.1,1.4c0.2,0.4,0.7,0.7,1.3,0.7h6.2c0.8,0,1.4-0.6,1.4-1.3
		C45.7,33.4,45.1,32.8,44.3,32.8z"/>
	<path d="M30.7,43h-5.2l6.2-7.4c0.3-0.4,0.4-1,0.2-1.5c-0.2-0.5-0.7-0.8-1.2-0.8h-8.1c-0.7,0-1.3,0.6-1.3,1.4s0.6,1.4,1.3,1.4h5.2
		l-6.2,7.4c-0.4,0.4-0.4,1-0.2,1.5c0.2,0.5,0.7,0.8,1.2,0.8h8.1c0.7,0,1.3-0.6,1.3-1.4C32,43.6,31.5,43,30.7,43z"/>
</g>
<path d="M49,22.6c0.2,0.4,0.7,0.6,1.2,0.6h4.2c0.7,0,1.3-0.5,1.3-1.1c0-0.6-0.6-1.1-1.3-1.1h-1.6l2.6-2.9c0.6-0.7,0-1.7-1.1-1.7
	h-4.2c-0.7,0-1.3,0.5-1.3,1.1c0,0.6,0.6,1.1,1.3,1.1h1.6l-2.6,2.9C48.9,21.8,48.8,22.3,49,22.6z"/>
</svg>
