<?xml version="1.0" encoding="utf-8"?>
<!-- Generator: Adobe Illustrator 21.1.0, SVG Export Plug-In . SVG Version: 6.00 Build 0)  -->
<svg version="1.1" id="Layer_1" xmlns="http://www.w3.org/2000/svg" xmlns:xlink="http://www.w3.org/1999/xlink" x="0px" y="0px"
	 viewBox="0 0 63 85" style="enable-background:new 0 0 63 85;" xml:space="preserve">
<path d="M48.9,27.1H14.1c-1.1,0-2,0.9-2,2c0,1.1,0.9,2,2,2h34.8c1.1,0,2-0.9,2-2C50.9,28,50,27.1,48.9,27.1z M48.9,38.9H14.1
	c-1.1,0-2,0.9-2,2c0,1.1,0.9,2,2,2h34.8c1.1,0,2-0.9,2-2C50.9,39.8,50,38.9,48.9,38.9z"/>
<path d="M63,17.1c0-0.5-0.2-1-0.6-1.3l-15-15C47,0.4,46.5,0.2,46,0.2H4.1C1.9,0.2,0,2,0,4.3l0,49.1l0,0.1c0,1,0.5,1.9,1.4,2.4
	l6.8,4.2c2.2,1.4,5,1.4,7.3,0l4.7-2.9c1-0.6,2.2-0.6,3.1,0l4.7,2.9c1.1,0.7,2.3,1,3.6,1c1.3,0,2.5-0.4,3.6-1l4.7-2.9
	c1-0.6,2.2-0.6,3.1,0l4.7,2.9c2.2,1.4,5,1.4,7.3,0l6.8-4.2c0.8-0.5,1.4-1.4,1.4-2.4l0-0.1L63,17.1C63,17.2,63,17.2,63,17.1z
	 M47.9,6.9l8.3,8.3h-8.1c-0.1,0-0.2-0.1-0.2-0.2c0,0,0,0,0,0V6.9z M59.1,52.8l-6.3,3.9c-1,0.6-2.2,0.6-3.1,0L45,53.9
	c-2.2-1.4-5-1.4-7.3,0l-4.7,2.9c-1,0.6-2.2,0.6-3.1,0l-4.7-2.9c-2.2-1.4-5-1.4-7.3,0l-4.7,2.9c-1,0.6-2.2,0.6-3.1,0l-6.3-3.9V4.3
	c0-0.1,0.1-0.2,0.2-0.2H44V15c0,2.3,1.9,4.1,4.1,4.1h10.9C59.1,19.2,59.1,52.8,59.1,52.8z M63,65.1L63,65.1L63,65.1c0-1.7-1.3-3-3-3
	c-0.5,0-1.1,0.2-1.6,0.4l-5.8,3.6c-0.9,0.6-2.1,0.6-3,0l-4.8-3c-2.2-1.4-4.9-1.4-7.1,0l-4.8,3c-0.9,0.6-2.1,0.6-3,0l-4.8-3
	c-2.2-1.4-4.9-1.4-7.1,0l-4.8,3c-0.9,0.6-2.1,0.6-3,0l-5.8-3.6c-1.4-0.9-3.2-0.4-4.1,1C0.2,64,0,64.5,0,65.1l0,0v0L0,80
	c0,2.3,1.9,4.1,4.1,4.1h54.7c2.3,0,4.1-1.9,4.1-4.1C63,80,63,65.1,63,65.1z M58.9,80.2H4.1c-0.1,0-0.2-0.1-0.2-0.2V66.9l4.3,2.7
	c2.2,1.4,4.9,1.4,7.1,0l4.8-3c0.9-0.6,2.1-0.6,3,0l4.8,3c1.1,0.7,2.3,1,3.6,1c1.3,0,2.5-0.4,3.6-1l4.8-3c0.9-0.6,2.1-0.6,3,0l4.8,3
	c2.2,1.4,4.9,1.4,7.1,0l4.3-2.7V80C59.1,80.1,59,80.2,58.9,80.2C58.9,80.2,58.9,80.2,58.9,80.2z"/>
</svg>
