<?xml version="1.0" encoding="utf-8"?>
<!-- Generator: Adobe Illustrator 21.1.0, SVG Export Plug-In . SVG Version: 6.00 Build 0)  -->
<svg version="1.1" id="Layer_1" xmlns="http://www.w3.org/2000/svg" xmlns:xlink="http://www.w3.org/1999/xlink" x="0px" y="0px"
	 viewBox="0 0 109 64" style="enable-background:new 0 0 109 64;" xml:space="preserve">
<path d="M100.6,44c5-2.8,8.4-8.2,8.4-14.5c0-9.1-7.2-16.5-16-16.5s-16,7.4-16,16.5C77,38.6,84.2,46,93,46c1.6,0,3.2-0.3,4.7-0.7
	l6.8,14.5H4.1l7.1-15.2c0.4-0.8,0.1-1.8-0.7-2.2c-0.8-0.4-1.7-0.1-2.1,0.8L0.2,60.7c-0.2,0.5-0.2,1.1,0.1,1.6
	c0.3,0.5,0.8,0.8,1.3,0.8h105.5l0,0c0.5,0,1-0.3,1.3-0.8c0.3-0.5,0.3-1.1,0.1-1.6L100.6,44z M80,29.5c0-7.4,5.8-13.4,13-13.4
	c7.1,0,13,6,13,13.4c0,7.4-5.8,13.4-13,13.4S80,36.9,80,29.5z"/>
<path d="M13.2,42.7c-5.4,0-10.1-3.8-10.1-8.2c0-4.4,4.7-8.2,10.1-8.2c6,0,8.6,0.3,8.6,8.2C21.9,42.4,19.2,42.7,13.2,42.7 M13.2,23
	C6.1,23,0,28.3,0,34.5C0,40.7,6.1,46,13.2,46C19.7,46,25,45.1,25,34.5C25,23.9,19.7,23,13.2,23"/>
<path d="M100.7,11.2c-0.9,1-2.2,1.6-3.6,1.6l-18.4-0.3h-0.1c-2.2,0-3.9,1.7-4,3.8l0.1,12c0,3.7-2.8,6.9-5.7,8.3l-3-0.5l-2.6-10.7
	c0.3-0.2,0.5-0.3,0.8-0.6c0.7-0.7,1.1-1.6,1.1-2.6L65.2,9.2c0-1.7,0.7-3.3,1.9-4.4c1.2-1.2,2.9-1.8,4.6-1.8l25.2,0.5
	c2.5,0,4.6,1.7,4.9,3.9C102,8.8,101.6,10.2,100.7,11.2 M76.6,41.9H35c-2.1,0-3.8-1.6-3.8-3.7c0-1.1,0.5-2.1,1.3-2.8
	c0.8-0.7,1.9-1,2.9-0.9l39,5.9C75.3,40.7,76.1,41.2,76.6,41.9 M36.3,26L36.3,26l24,0l2.4,9.7l-26.8-4.1c-2-0.3-4,0.3-5.5,1.6
	c-0.8,0.7-1.5,1.6-1.9,2.6c-0.2-0.6-0.4-1.2-0.4-1.9C28.2,29.6,31.8,26,36.3,26 M104.9,7c-0.5-3.6-4-6.4-8-6.5L71.8,0
	c-2.6-0.1-5,0.9-6.8,2.6C63.1,4.4,62,6.7,62,9.2l0.1,13.1c0,0.2-0.1,0.3-0.2,0.4c-0.1,0.1-0.3,0.2-0.4,0.2l-25.2,0h0
	c-6.2,0-11.3,4.9-11.3,11c0,2.7,1.3,5.2,3.5,6.8c1,2.5,3.5,4.2,6.4,4.2h43.6c0.9,0,1.6-0.7,1.6-1.5c0-3-2.3-5.6-5.3-6l-1.3-0.2
	c2.7-2.4,4.4-5.7,4.3-9.1l-0.1-12c0-0.4,0.4-0.8,0.8-0.8h0L97,15.8c2.4,0,4.5-0.9,6-2.6C104.6,11.5,105.3,9.2,104.9,7"/>
</svg>
