<?xml version="1.0" encoding="utf-8"?>
<!-- Generator: Adobe Illustrator 21.1.0, SVG Export Plug-In . SVG Version: 6.00 Build 0)  -->
<svg version="1.1" id="Layer_1" xmlns="http://www.w3.org/2000/svg" xmlns:xlink="http://www.w3.org/1999/xlink" x="0px" y="0px"
	 viewBox="0 0 95 109" style="enable-background:new 0 0 95 109;" xml:space="preserve">
<style type="text/css">
	.st0{filter:url(#Adobe_OpacityMaskFilter);}
	.st1{fill:#FFFFFF;}
	.st2{mask:url(#b);}
	.st3{filter:url(#Adobe_OpacityMaskFilter_1_);}
	.st4{mask:url(#d);}
</style>
<path d="M27.1,109c-1.9,0-3.6-0.8-5-2.1c-2.8-2.9-2.8-7.6-0.1-10.6l15.2-16.4l-0.1-7.8c0-0.9,0.7-1.7,1.6-1.7
	c0.9-0.1,1.6,0.7,1.6,1.6l0.1,8.4c0,0.4-0.2,0.9-0.4,1.2L24.3,98.6c-0.7,0.8-1.1,1.9-1.1,3c0,1.1,0.4,2.2,1.2,2.9
	c1.5,1.6,4,1.6,5.5,0c0,0,0,0,0,0l16.8-18.3c0.7-0.8,1-1.2,1.3-1.8c0.3-0.8,1.2-1.3,2-0.9c0,0,0,0,0,0c0.8,0.3,1.2,1.3,0.9,2.2
	c-0.5,1.2-1.1,2-1.9,2.9l-16.8,18.3C30.8,108.2,29,109,27.1,109L27.1,109L27.1,109z M35.5,62c-0.8,0-1.5-0.7-1.5-1.5l0-0.5V39.8
	c0-6,4.7-10.8,10.5-10.8S55,33.9,55,39.8v20.6c0,0.9-0.7,1.6-1.5,1.6c-0.9,0-1.5-0.7-1.5-1.6V39.8c0-4.2-3.3-7.7-7.4-7.7
	c-4.1,0-7.4,3.4-7.4,7.7l0,20.5C37.1,61.2,36.4,62,35.5,62C35.6,62,35.5,62,35.5,62z"/>
<path d="M62,109c-3.1,0-5.8-2-6.8-5l-4.8-14.8c-0.9-2.8-2.4-5.3-4.4-7.4l-5.8-6c-2.5-2.6-4.2-5.5-5.2-8.7c-0.2-0.8,0.2-1.7,1-1.9
	c0,0,0,0,0,0c0.8-0.2,1.7,0.2,1.9,1.1c0.8,2.8,2.3,5.3,4.4,7.5l5.8,6c2.4,2.5,4.1,5.4,5.1,8.7l4.8,14.8c0.3,1.1,1.1,1.9,2.1,2.4
	c1,0.5,2.2,0.5,3.2,0.1c1.7-0.7,2.7-3.1,2.1-5.1l-6.2-19.4c-0.2-0.6-0.4-1.1-0.7-1.6l-4.4-9.1c-0.5-1.1-0.9-2.2-1.3-3.4
	c-0.2-0.8,0.3-1.7,1.1-1.9c0,0,0,0,0,0c0.8-0.2,1.7,0.3,1.9,1.1c0,0,0,0,0,0c0.3,1,0.6,1.9,1.1,2.8l4.4,9.1c0.3,0.7,0.6,1.4,0.8,2.1
	l6.2,19.4c1.1,3.5-0.7,7.5-3.9,8.9C63.9,108.8,63,109,62,109"/>
<g transform="translate(32)">
	<defs>
		<filter id="Adobe_OpacityMaskFilter" filterUnits="userSpaceOnUse" x="0.3" y="0.1" width="23.8" height="28.7">
			<feColorMatrix  type="matrix" values="1 0 0 0 0  0 1 0 0 0  0 0 1 0 0  0 0 0 1 0"/>
		</filter>
	</defs>
	<mask maskUnits="userSpaceOnUse" x="0.3" y="0.1" width="23.8" height="28.7" id="b">
		<g class="st0">
			<path id="a" class="st1" d="M0.3,0.1h23.8v28.7H0.3V0.1z"/>
		</g>
	</mask>
	<path class="st2" d="M12.2,3.3c-4.7,0-8.8,5.6-8.8,12c0,6.9,0.4,10.2,8.8,10.2S21,22.2,21,15.3C21,8.9,16.9,3.3,12.2,3.3
		 M12.2,28.8c-11,0-11.9-5.8-11.9-13.5c0-8.3,5.5-15.2,11.9-15.2c6.5,0,11.9,7,11.9,15.2C24.1,23,23.2,28.8,12.2,28.8"/>
</g>
<g transform="translate(48 59)">
	<defs>
		<filter id="Adobe_OpacityMaskFilter_1_" filterUnits="userSpaceOnUse" x="0.9" y="0" width="46.1" height="50">
			<feColorMatrix  type="matrix" values="1 0 0 0 0  0 1 0 0 0  0 0 1 0 0  0 0 0 1 0"/>
		</filter>
	</defs>
	<mask maskUnits="userSpaceOnUse" x="0.9" y="0" width="46.1" height="50" id="d">
		<g class="st3">
			<path id="c" class="st1" d="M0.9,0H47v50H0.9V0z"/>
		</g>
	</mask>
	<path class="st4" d="M45.7,50h-4.5c-0.7,0-1.3-0.7-1.3-1.6V14.5c0-3.3-2.2-5.9-5-5.9h-32C2.2,8.6,1.6,7.9,1.6,7
		c0-0.9,0.6-1.6,1.3-1.6h32c4.2,0,7.6,4.1,7.6,9.1v32.4h1.9V13.6c0-5.7-3.9-10.4-8.7-10.4H2.3c-0.7,0-1.3-0.7-1.3-1.6
		C0.9,0.7,1.5,0,2.3,0h33.4C41.9,0,47,6.1,47,13.6v34.8C47,49.3,46.4,50,45.7,50"/>
</g>
<path d="M6,109H1.4c-0.8,0-1.4-0.7-1.4-1.6V72.6C0,65.1,5.3,59,11.8,59H41c0.8,0,1.4,0.7,1.4,1.6c0,0.9-0.6,1.6-1.4,1.6H11.8
	c-5,0-9,4.7-9,10.4v33.3h1.9V73.5c0-5,3.5-9.1,7.9-9.1h31.7c0.8,0,1.4,0.7,1.4,1.6c0,0.9-0.6,1.6-1.4,1.6H12.5
	c-2.8,0-5.1,2.7-5.1,5.9v33.9C7.4,108.3,6.8,109,6,109"/>
<path d="M44.3,36.1c-0.8,0-1.7,0.4-1.9,1.4l-2,11.8c-0.6,3.3,0.2,6.7,2.1,9.5l3.6,5.2c0.6,0.9,1.9,1.1,2.8,0.5
	c0.9-0.6,1.1-1.7,0.6-2.6c0,0,0,0,0-0.1l-3.9-5.4c-1.2-1.7-1.7-3.9-1.4-6l2.1-12.1c0.1-0.5,0-1-0.3-1.4c-0.3-0.4-0.8-0.7-1.3-0.8
	C44.6,36.1,44.5,36.1,44.3,36.1 M47.8,68c-1.7,0-3.3-0.8-4.3-2.2l-3.6-5.2c-2.4-3.5-3.4-7.7-2.6-11.8l2-11.8c0.5-2.7,3-4.3,5.9-4
	c1.4,0.2,2.6,1,3.4,2.1c0.8,1.1,1.1,2.4,0.9,3.8L47.4,51c-0.2,1.3,0.1,2.6,0.8,3.7l3.9,5.4c0,0,0,0,0,0c1.6,2.3,1,5.4-1.4,7
	C49.9,67.7,48.9,68,47.8,68"/>
</svg>
