<?xml version="1.0" encoding="utf-8"?>
<!-- Generator: Adobe Illustrator 21.1.0, SVG Export Plug-In . SVG Version: 6.00 Build 0)  -->
<svg version="1.1" id="Layer_1" xmlns="http://www.w3.org/2000/svg" xmlns:xlink="http://www.w3.org/1999/xlink" x="0px" y="0px"
	 viewBox="0 0 71 79" style="enable-background:new 0 0 71 79;" xml:space="preserve">
<style type="text/css">
	.st0{fill:#FFFFFF;stroke:#FFFFFF;stroke-width:0.4;}
	.st1{fill:#FFFFFF;}
	.st2{fill:#FFFFFF;stroke:#FFFFFF;stroke-width:0.5;}
</style>
<g>
	<path class="st0" d="M61,39.1v-2.3c0-2.6-0.4-5.2-1.2-7.7l9-7.3c1-0.8,1.3-2,0.9-3.2c-0.4-1.2-1.5-1.9-2.7-1.9h-3.9l6-10.6
		c0.6-1,0.6-2.3,0-3.4c-0.6-1-1.7-1.7-2.9-1.7H55.1c-1.3,0-2.5,0.7-3,1.9L46.6,14c-1.9-0.9-4-1.6-6.1-2c-1.6-0.3-3.2-0.5-4.8-0.5
		c-6,0-11.8,2.1-16.4,6.1c-0.5,0.4-0.5,1.1-0.1,1.6s1.1,0.5,1.6,0.1l0,0c4.1-3.6,9.4-5.5,14.9-5.5c1.5,0,2.9,0.1,4.3,0.4
		c1.9,0.4,3.7,1,5.5,1.8L43.7,20c-0.4,0.9-0.4,1.9,0.1,2.7c0.5,0.8,1.4,1.3,2.4,1.3h3.7L46.6,33c-0.5,1.2-0.1,2.5,1,3.2
		c0.5,0.4,1.1,0.5,1.6,0.5c0.6,0,1.2-0.2,1.8-0.6l6.9-5.6c0.6,2,0.8,4.1,0.8,6.2v2.4C50.8,39,40,37.9,30.9,33.5
		c-5.7-2.8-8-5.6-8.1-5.6c-0.4-0.5-1.1-0.6-1.6-0.2c-0.3,0.2-0.4,0.5-0.4,0.9c0,2-1,4.2-2.8,6.2c-1.4,1.6-3.1,2.9-5.1,3.8v-1.9
		c0-5.1,1.6-9.9,4.7-13.9c0.4-0.5,0.3-1.2-0.2-1.6c-0.5-0.4-1.2-0.3-1.6,0.2c-3.4,4.4-5.2,9.7-5.2,15.3v2.4c-0.2,0-0.3,0-0.5,0
		c-5,0-9,4-9,9c0,5,4,9,9,9c0.3,0,0.5,0,0.8,0c1.9,12,12.3,21.2,24.9,21.2c1.6,0,3.2-0.2,4.8-0.5c6.7-1.3,12.6-5.3,16.4-11
		c0.3-0.5,0.2-1.2-0.3-1.6c-0.5-0.3-1.2-0.2-1.6,0.3c-3.4,5.2-8.8,8.9-14.9,10c-1.4,0.3-2.9,0.4-4.3,0.4
		c-12.6,0-22.9-10.3-22.9-22.9v-12c2.5-1,4.9-2.6,6.8-4.7c1.5-1.7,2.6-3.5,3-5.4c1.4,1.2,3.6,2.8,7,4.5c5.4,2.6,14.7,5.8,29,6v11.7
		c0,3-0.6,5.9-1.7,8.7c-0.2,0.6,0,1.3,0.6,1.5s1.3,0,1.5-0.6l0,0c0.7-1.8,1.3-3.7,1.6-5.6c0,0,0.1,0,0.1,0c5,0,9-4,9-9
		C69.8,43.2,65.9,39.2,61,39.1z M49.5,34.3c-0.3,0.2-0.5,0.1-0.6,0c-0.1-0.1-0.3-0.3-0.2-0.6l3.9-10.5c0.2-0.6-0.1-1.3-0.7-1.5
		c-0.1,0-0.3-0.1-0.4-0.1h-5.3c-0.2,0-0.4-0.1-0.4-0.2c-0.1-0.2-0.1-0.3,0-0.5l8.3-17.1c0.2-0.4,0.6-0.6,1-0.6h11.1
		c0.6,0,0.9,0.4,0.9,0.5c0.1,0.2,0.3,0.6,0,1.1l-7,12.3c-0.3,0.6-0.1,1.3,0.4,1.6c0.2,0.1,0.4,0.1,0.6,0.1H67c0.4,0,0.5,0.3,0.5,0.4
		c0.1,0.2,0,0.5-0.2,0.6L49.5,34.3L49.5,34.3z M10.2,54.8c-3.7,0-6.7-3-6.7-6.7c0-3.7,3-6.7,6.7-6.7c0.1,0,0.3,0,0.5,0v3.8
		c-1.6,0-3.5,0.5-4.5,2.6c-0.3,0.6,0,1.3,0.6,1.5s1.3,0,1.5-0.6c0,0,0,0,0,0c0.5-1.1,1.6-1.3,2.4-1.3v5.6c0,0.6,0,1.1,0.1,1.7
		C10.5,54.8,10.3,54.8,10.2,54.8z M60.9,54.8c0-0.6,0.1-1.1,0.1-1.7v-5.6c0.8,0,1.9,0.1,2.4,1.3c0.2,0.6,0.9,0.9,1.5,0.7
		s0.9-0.9,0.7-1.5c0,0,0-0.1,0-0.1c-0.9-2.1-2.9-2.7-4.5-2.6v-3.9c3.6,0.1,6.6,3.1,6.6,6.7C67.5,51.8,64.6,54.8,60.9,54.8L60.9,54.8
		z"/>
	<path class="st1" d="M22.3,52.9c0.2,0.6,0.8,0.9,1.4,0.8l6.1-1.9c0.6-0.2,0.9-0.8,0.8-1.4c-0.1-0.2-0.2-0.3-0.3-0.5l-4.1-4.1
		c-0.4-0.4-1.2-0.4-1.6,0c-0.4,0.4-0.4,1.2,0,1.6l0,0l2.7,2.7L23,51.5C22.4,51.7,22.1,52.3,22.3,52.9z M48.1,53.7
		c0.6,0,1.1-0.5,1.1-1.2c0-0.5-0.3-0.9-0.8-1.1l-4.2-1.3l2.7-2.7c0.4-0.4,0.4-1.2,0-1.6s-1.2-0.4-1.6,0l-4.1,4.1
		c-0.4,0.4-0.4,1.2,0,1.6c0.1,0.1,0.3,0.2,0.5,0.3l6.1,1.9C47.9,53.7,48,53.7,48.1,53.7L48.1,53.7z"/>
	<path class="st2" d="M8.2,15l-4.4,1c-0.6,0.1-1,0.8-0.9,1.4c0,0.1,0.1,0.3,0.2,0.4l4.7,7c0.4,0.5,1.1,0.7,1.6,0.3
		c0.5-0.4,0.7-1.1,0.3-1.6l-3.7-5.6l4.4-1c0.6-0.1,1-0.8,0.9-1.4c0-0.1-0.1-0.3-0.2-0.4L4.6,5.5C4.2,5,3.5,4.8,3,5.2
		C2.4,5.6,2.3,6.3,2.7,6.8L8.2,15z M16.9,15.1c0.2,0.6,0.9,0.9,1.5,0.6c0.6-0.2,0.9-0.9,0.6-1.5c0,0,0,0,0-0.1l-1.9-4.3l3-0.1
		c0.6,0,1.1-0.6,1.1-1.2c0-0.1,0-0.3-0.1-0.4l-2.4-5.4c-0.3-0.6-0.9-0.8-1.5-0.6c-0.6,0.3-0.8,0.9-0.6,1.5l1.7,3.9l-3,0.1
		c-0.6,0-1.1,0.6-1.1,1.2c0,0.1,0,0.3,0.1,0.4C14.4,9.3,16.9,15.1,16.9,15.1z"/>
</g>
<g>
	<path d="M61.4,38.9v-2.1c0-2.6-0.4-5.2-1.2-7.7l8.9-7.2c1-0.8,1.4-2.2,1-3.4c-0.4-1.2-1.6-2-2.9-2c0,0,0,0,0,0h-3.5l5.8-10.3
		c0.6-1.1,0.6-2.5,0-3.6c-0.6-1.1-1.8-1.8-3.1-1.8c0,0,0,0,0,0H55.3c-1.4,0-2.6,0.8-3.2,2l-5.3,10.9c-1.9-0.9-3.9-1.5-5.9-1.9
		c-1.6-0.3-3.2-0.5-4.8-0.5c0,0,0,0,0,0c-6,0-11.9,2.2-16.5,6.1c-0.3,0.2-0.4,0.6-0.5,0.9c0,0.4,0.1,0.7,0.3,1
		c0.5,0.6,1.3,0.6,1.9,0.1C25.4,16,30.6,14,36,14c1.4,0,2.9,0.1,4.3,0.4c1.8,0.3,3.6,0.9,5.3,1.7l-1.8,3.8c-0.5,0.9-0.4,2,0.2,2.9
		c0.6,0.9,1.5,1.4,2.6,1.4c0,0,0,0,0,0h3.4l-3.2,8.6c-0.5,1.3-0.1,2.7,1,3.5c1.1,0.8,2.6,0.7,3.6-0.1l6.7-5.4
		c0.5,1.9,0.8,3.9,0.8,5.8v2.2c-7.6-0.1-18.4-1.2-27.5-5.6c-5.5-2.7-7.9-5.4-8-5.5c-0.2-0.3-0.6-0.5-0.9-0.5c-0.4,0-0.7,0.1-1,0.3
		c-0.3,0.3-0.5,0.6-0.5,1c0,2-1,4.1-2.7,6.1c-1.3,1.5-2.9,2.7-4.7,3.6v-1.5c0-5,1.6-9.8,4.6-13.7c0.2-0.3,0.3-0.6,0.3-1
		s-0.2-0.7-0.5-0.9c-0.3-0.2-0.6-0.3-1-0.3c-0.4,0-0.7,0.2-0.9,0.5c-3.4,4.5-5.2,9.8-5.2,15.4v2.1c-0.1,0-0.2,0-0.3,0
		c-5.1,0-9.2,4.1-9.2,9.2c0,5.1,4.1,9.2,9.2,9.2c0.2,0,0.4,0,0.6,0c2,12.1,12.7,21.2,25,21.2c1.6,0,3.2-0.2,4.8-0.5
		c6.7-1.3,12.7-5.3,16.5-11.1c0.2-0.3,0.3-0.7,0.2-1c-0.1-0.4-0.3-0.7-0.6-0.9c-0.3-0.2-0.7-0.3-1-0.2c-0.4,0.1-0.7,0.3-0.8,0.6
		c-3.3,5.2-8.7,8.8-14.7,9.9c-1.4,0.3-2.9,0.4-4.3,0.4c-12.5,0-22.7-10.2-22.7-22.7V41.2c2.5-1,4.9-2.7,6.7-4.7
		c1.4-1.6,2.5-3.4,3-5.2c1.3,1.1,3.5,2.7,6.8,4.3c5.3,2.6,14.6,5.8,28.9,6v11.5c0,3-0.6,5.9-1.7,8.6c-0.3,0.7,0,1.5,0.7,1.8
		c0.3,0.1,0.7,0.1,1,0c0.3-0.1,0.6-0.4,0.7-0.7c0.7-1.7,1.2-3.6,1.6-5.4c5.1,0,9.2-4.1,9.2-9.2C70.2,43.2,66.3,39.1,61.4,38.9z
		 M52.3,21.6c-0.2-0.1-0.3-0.1-0.5-0.1h-5.3c0,0,0,0,0,0c-0.1,0-0.2-0.1-0.3-0.2c-0.1-0.1-0.1-0.2,0-0.3L54.5,4
		c0.1-0.3,0.5-0.5,0.8-0.5h11.1c0.5,0,0.7,0.3,0.8,0.4c0.1,0.1,0.2,0.5,0,0.9l-7,12.3c-0.2,0.3-0.2,0.7-0.1,1
		c0.1,0.3,0.3,0.6,0.6,0.8c0.2,0.1,0.4,0.2,0.7,0.2h5.9c0.2,0,0.3,0.1,0.4,0.3c0.1,0.1,0,0.3-0.1,0.4L49.6,34.2h0c0,0-0.2,0.1-0.4,0
		c-0.2-0.1-0.1-0.3-0.1-0.3L53,23.4C53.3,22.7,53,21.9,52.3,21.6z M61.4,53.1v-5.4c0.7,0,1.6,0.2,2,1.1c0.1,0.3,0.4,0.6,0.7,0.7
		c0.3,0.1,0.7,0.2,1,0c0.7-0.3,1-1,0.8-1.7c0,0,0-0.1,0-0.1c-1-2.3-3.1-2.8-4.4-2.8v-3.4c3.4,0.2,6.2,3.1,6.2,6.5
		c0,3.5-2.8,6.3-6.2,6.5C61.4,54.1,61.4,53.6,61.4,53.1z M10.6,45c-1.3,0-3.4,0.4-4.4,2.8c-0.3,0.7,0,1.5,0.7,1.8
		c0.3,0.1,0.7,0.2,1,0c0.3-0.1,0.6-0.4,0.8-0.7c0.4-0.9,1.3-1.1,2-1.2v5.4c0,0.5,0,1,0,1.5c-0.1,0-0.2,0-0.3,0
		c-3.6,0-6.5-2.9-6.5-6.5c0-3.6,2.9-6.5,6.5-6.5c0.1,0,0.1,0,0.3,0V45z"/>
	<path d="M22.5,52.9c0.2,0.6,0.8,0.9,1.4,0.8l6.1-1.9c0.6-0.2,0.9-0.8,0.8-1.4c-0.1-0.2-0.2-0.3-0.3-0.5l-4.1-4.1
		c-0.4-0.4-1.2-0.4-1.6,0c-0.4,0.4-0.4,1.2,0,1.6l2.7,2.7l-4.2,1.3C22.6,51.7,22.3,52.3,22.5,52.9z"/>
	<path d="M47.1,45.8c-0.4-0.4-1.2-0.4-1.6,0l-4.1,4.1c-0.4,0.4-0.4,1.2,0,1.6c0.1,0.1,0.3,0.2,0.5,0.3l6.1,1.9
		c0.1,0,0.2,0.1,0.3,0.1h0c0.6,0,1.1-0.5,1.1-1.2c0-0.5-0.3-0.9-0.8-1.1l-4.2-1.3l2.7-2.7C47.6,47,47.6,46.3,47.1,45.8z"/>
	<path d="M16.8,15.2c0.1,0.3,0.4,0.6,0.7,0.8c0.2,0.1,0.4,0.1,0.6,0.1c0.2,0,0.3,0,0.5-0.1c0.3-0.1,0.6-0.4,0.8-0.7
		c0.1-0.3,0.2-0.7,0-1.1c0,0,0-0.1,0-0.1l-1.7-4l2.7-0.1c0.8,0,1.4-0.7,1.3-1.5c0-0.2,0-0.3-0.1-0.5l-2.4-5.4
		c-0.3-0.7-1.1-1-1.8-0.7c-0.7,0.3-1,1.1-0.7,1.8l1.6,3.6l-2.7,0.1c-0.4,0-0.7,0.2-1,0.5c-0.3,0.3-0.4,0.6-0.4,1
		c0,0.2,0,0.3,0.1,0.5L16.8,15.2z"/>
	<path d="M8,14.8l-4.1,0.9c-0.4,0.1-0.7,0.3-0.9,0.6c-0.2,0.3-0.3,0.7-0.2,1.1c0,0.2,0.1,0.3,0.2,0.5l4.7,7c0.3,0.4,0.7,0.6,1.2,0.6
		c0.3,0,0.5-0.1,0.8-0.2c0.6-0.4,0.8-1.3,0.4-1.9L6.5,18l4.1-0.9c0.8-0.2,1.2-0.9,1-1.7c0-0.2-0.1-0.3-0.2-0.5L5,5.4
		C4.8,5.1,4.4,4.8,4.1,4.8C3.7,4.7,3.3,4.8,3,5C2.4,5.4,2.2,6.3,2.7,6.9L8,14.8z"/>
</g>
</svg>
