<?xml version="1.0" encoding="utf-8"?>
<!-- Generator: Adobe Illustrator 21.1.0, SVG Export Plug-In . SVG Version: 6.00 Build 0)  -->
<svg version="1.1" id="Layer_1" xmlns="http://www.w3.org/2000/svg" xmlns:xlink="http://www.w3.org/1999/xlink" x="0px" y="0px"
	 viewBox="0 0 22 22" style="enable-background:new 0 0 22 22;" xml:space="preserve">
<g>
	<path d="M15.8,0H6C2.7,0,0,2.7,0,6v9.8c0,3.3,2.7,6,6,6h9.8c3.3,0,6-2.7,6-6V6C21.9,2.7,19.2,0,15.8,0z M19.9,15.8
		c0,2.3-1.8,4.1-4.1,4.1H6c-2.3,0-4.1-1.8-4.1-4.1V6c0-2.3,1.8-4.1,4.1-4.1h9.8c2.3,0,4.1,1.8,4.1,4.1L19.9,15.8L19.9,15.8z"/>
	<path d="M10.9,5.3c-3.1,0-5.6,2.5-5.6,5.6c0,3.1,2.5,5.6,5.6,5.6c3.1,0,5.6-2.5,5.6-5.6C16.6,7.8,14.1,5.3,10.9,5.3L10.9,5.3z
		 M10.9,14.6c-2,0-3.7-1.7-3.7-3.7c0-2,1.7-3.7,3.7-3.7c2,0,3.7,1.7,3.7,3.7C14.6,13,13,14.6,10.9,14.6L10.9,14.6z"/>
	<path d="M16.8,3.7c-0.8,0-1.4,0.6-1.4,1.4c0,0.4,0.2,0.7,0.4,1c0.3,0.3,0.6,0.4,1,0.4c0.4,0,0.7-0.2,1-0.4c0.3-0.3,0.4-0.6,0.4-1
		c0-0.4-0.2-0.7-0.4-1C17.6,3.8,17.2,3.7,16.8,3.7z"/>
</g>
</svg>
