<?xml version="1.0" encoding="utf-8"?>
<!-- Generator: Adobe Illustrator 21.1.0, SVG Export Plug-In . SVG Version: 6.00 Build 0)  -->
<svg version="1.1" id="Layer_1" xmlns="http://www.w3.org/2000/svg" xmlns:xlink="http://www.w3.org/1999/xlink" x="0px" y="0px"
	 viewBox="0 0 80 85" style="enable-background:new 0 0 80 85;" xml:space="preserve">
<path d="M79.3,32.7L64.5,20.2v-2.3c0-0.4-0.1-0.7-0.4-1L47.6,0.4l0,0C47.3,0.1,46.9,0,46.5,0l0,0c0,0-0.1,0-0.1,0H23
	c-4.1,0-7.5,3.4-7.5,7.5v12.7L0.8,32.7C0.3,32.9,0,33.4,0,33.9v42c0,5,4.1,9.1,9.1,9.1h61.8c5,0,9.1-4.1,9.1-9.1V33.9
	C80,33.4,79.7,32.9,79.3,32.7z M76.6,33.9l-12,10.2V23.8L76.6,33.9L76.6,33.9z M48,4.6l12,11.9h-7.2c-2.6,0-4.8-2.1-4.8-4.8L48,4.6
	L48,4.6z M23,2.7h22.3v9.1c0,4.1,3.3,7.5,7.5,7.5h9.1v27.1l-17.7,15c-2.4,2-5.9,2-8.2,0l-17.7-15V7.5C18.2,4.8,20.3,2.7,23,2.7z
	 M15.5,23.8v20.4l-12-10.2C3.5,33.9,15.5,23.8,15.5,23.8z M9.1,82.2c-1.4,0-2.8-0.5-3.9-1.3L23.7,62c0.5-0.5,0.5-1.4-0.1-1.9
	c-0.5-0.5-1.4-0.5-1.9,0L3.5,78.8c-0.5-0.9-0.8-2-0.8-3v-39L16,48.1l0,0l18.2,15.4c3.4,2.9,8.4,2.9,11.7,0l31.4-26.6v39
	c0,1.1-0.3,2.1-0.8,3L58.1,60.1c-0.5-0.5-1.4-0.5-1.9,0c-0.5,0.5-0.5,1.3,0,1.9l18.6,18.9c-1.1,0.8-2.5,1.3-3.9,1.3L9.1,82.2
	L9.1,82.2z"/>
<path d="M36.5,41.1c0.5,0.6,1.3,0.6,1.9,0.2l8.7-7.1c0.4-0.3,0.6-1.1,0.1-1.7c-0.5-0.7-1.2-0.8-1.8-0.4l-7.6,6.2l-2.9-3.4
	c-0.5-0.6-1.3-0.6-1.9-0.2c-0.6,0.5-0.6,1.3-0.2,1.9L36.5,41.1L36.5,41.1z"/>
<path d="M40,51.5c8.2,0,14.9-6.7,14.9-14.9S48.2,21.8,40,21.8s-14.9,6.7-14.9,14.9S31.8,51.5,40,51.5z M30.4,29.2
	c4.1-5.3,11.8-6.2,17.1-2.1s6.2,11.8,2.1,17.1s-11.8,6.2-17.1,2.1c-2.9-2.3-4.7-5.8-4.7-9.6C27.8,33.9,28.7,31.3,30.4,29.2z"/>
</svg>
