<?xml version="1.0" encoding="utf-8"?>
<!-- Generator: Adobe Illustrator 21.1.0, SVG Export Plug-In . SVG Version: 6.00 Build 0)  -->
<svg version="1.1" id="Layer_1" xmlns="http://www.w3.org/2000/svg" xmlns:xlink="http://www.w3.org/1999/xlink" x="0px" y="0px"
	 viewBox="0 0 65 80" style="enable-background:new 0 0 65 80;" xml:space="preserve">
<path d="M63.7,62.3c-0.6-1.6-2-2.6-3.7-2.6h-3.2l-4.7-8.2V37.4c0-2.9-2.3-5.2-5.2-5.2v-17C47.2,7.4,41.2,1,33.5,0.7
	c-0.3,0-0.6,0-1,0c-9,0-14.1,7.4-14.4,14.4c0,0,0,0,0,0.1h0v17c-2.9,0-5.2,2.3-5.2,5.2v14.1l-4.7,8.2H5c-2.2,0-3.9,1.7-3.9,3.9
	c0,1.7,1,3.1,2.6,3.7c-1.9,2.1-1.7,5.4,0.4,7.3c0.8,0.7,1.7,1.1,2.8,1.3l25.4,3.5c0.1,0,0.2,0,0.4,0l25.4-3.5c2.8-0.4,4.8-3,4.5-5.8
	c-0.1-1-0.6-2-1.3-2.8C63.4,66.5,64.4,64.3,63.7,62.3C63.7,62.3,63.7,62.3,63.7,62.3L63.7,62.3z M32.5,3.3C38.7,3,44,7.9,44.3,14.1
	c0,0.3,0,0.7,0,1h-2.6c-3.6,0-6.5-2.9-6.5-6.5c0-0.7-0.6-1.3-1.3-1.3c-0.3,0-0.7,0.1-0.9,0.4c-3.2,3.3-7.5,5.4-12,6
	C21.6,7.8,26.6,3.3,32.5,3.3z M29.9,33.5v-5.6c0.9,0.2,1.7,0.4,2.6,0.4c0.9,0,1.8-0.1,2.6-0.4v5.6c0,0.7,0.6,1.3,1.3,1.3H39v1.7
	l-6.5,2.2l-6.5-2.2v-1.7h2.6C29.3,34.8,29.9,34.2,29.9,33.5L29.9,33.5z M22.3,16.1c3.9-0.7,7.5-2.4,10.6-4.9
	c1.2,3.9,4.7,6.6,8.8,6.6h0.6c-1.6,4.4-5.8,7.9-9.7,7.9C27.9,25.6,23.4,21.2,22.3,16.1z M37.7,32.1v-5.4c2.9-1.6,5.2-4.1,6.5-7.2
	v12.5H37.7L37.7,32.1z M20.7,19.6c1.4,3,3.7,5.5,6.5,7.2v5.3h-6.5V19.6z M23.3,34.8v2.6c0,0.6,0.4,1.1,0.9,1.2v0l7.9,2.6
	c0.3,0.1,0.6,0.1,0.8,0l7.9-2.6c0.5-0.2,0.9-0.7,0.9-1.2v-2.6h3.6l-5.9,23.6H25.7l-5.9-23.6L23.3,34.8L23.3,34.8z M25.2,61h14.5
	l5.3,6.1l-12.5,1.7L20,67.1C20,67.1,25.2,61,25.2,61z M16.9,66.7l-2.4-0.3l8.2-9.1l0.5,2.1C23.2,59.3,16.9,66.7,16.9,66.7z
	 M41.8,59.3l0.5-2.1l8.2,9.1l-2.4,0.3L41.8,59.3L41.8,59.3z M3.7,63.6c0-0.7,0.6-1.3,1.3-1.3h3.9c0.5,0,0.9-0.2,1.1-0.7l5.2-9.2
	c0.1-0.2,0.2-0.4,0.2-0.7V37.4c0-1.1,0.6-2,1.6-2.4l2.4,9.6l2.4,9.6l-9.6,10.7H5C4.3,64.9,3.7,64.3,3.7,63.6L3.7,63.6L3.7,63.6z
	 M32.5,76.7L7.2,73.2C5.8,73,4.8,71.8,5,70.3c0.2-1.4,1.5-2.4,2.9-2.3c0,0,0.1,0,0.1,0l9.3,1.3l14.8,2l7,4.4L32.5,76.7L32.5,76.7z
	 M57.8,73.2l-14.7,2l-6.8-4.3l11.5-1.6l9.3-1.3c1.4-0.2,2.7,0.8,2.9,2.2c0,0.1,0,0.2,0,0.4C60,72,59,73,57.8,73.2L57.8,73.2z
	 M60,64.9h-7.3l-9.7-10.7l2.4-9.6l2.4-9.6c1,0.4,1.6,1.4,1.6,2.4v14.4c0,0.2,0.1,0.5,0.2,0.7l5.2,9.2c0.2,0.4,0.7,0.7,1.1,0.7H60
	c0.7,0,1.3,0.6,1.3,1.3C61.3,64.3,60.7,64.9,60,64.9L60,64.9z"/>
</svg>
