<?xml version="1.0" encoding="utf-8"?>
<!-- Generator: Adobe Illustrator 21.1.0, SVG Export Plug-In . SVG Version: 6.00 Build 0)  -->
<svg version="1.1" id="Layer_1" xmlns="http://www.w3.org/2000/svg" xmlns:xlink="http://www.w3.org/1999/xlink" x="0px" y="0px"
	 viewBox="0 0 26 22" style="enable-background:new 0 0 26 22;" xml:space="preserve">
<path d="M1.5,3.3h22.4c0.8,0,1.5-0.7,1.5-1.5c0-0.8-0.7-1.5-1.5-1.5H1.5C0.7,0.3,0,0.9,0,1.8C0,2.6,0.7,3.3,1.5,3.3z M23.9,9.5H1.5
	C0.7,9.5,0,10.2,0,11c0,0.8,0.7,1.5,1.5,1.5h22.4c0.8,0,1.5-0.7,1.5-1.5C25.3,10.2,24.7,9.5,23.9,9.5z M23.9,18.8H1.5
	c-0.8,0-1.5,0.7-1.5,1.5c0,0.8,0.7,1.5,1.5,1.5h22.4c0.8,0,1.5-0.7,1.5-1.5C25.3,19.4,24.7,18.8,23.9,18.8z"/>
</svg>
