<?xml version="1.0" encoding="utf-8"?>
<!-- Generator: Adobe Illustrator 21.1.0, SVG Export Plug-In . SVG Version: 6.00 Build 0)  -->
<svg version="1.1" id="Layer_1" xmlns="http://www.w3.org/2000/svg" xmlns:xlink="http://www.w3.org/1999/xlink" x="0px" y="0px"
	 viewBox="0 0 19 13" style="enable-background:new 0 0 19 13;" xml:space="preserve">
<path d="M11.4,12.1L18,6.7c0.1-0.1,0.1-0.1,0.1-0.2c0-0.1,0-0.1-0.2-0.3L11.5,1c-0.2-0.2-0.3-0.2-0.5,0l0,0
	c-0.1,0.1-0.1,0.3,0.1,0.4L16.8,6H1.2C1,6,0.8,6.2,0.8,6.4S1,6.8,1.2,6.8h15.4L11,11.6c0,0-0.3,0.2,0,0.5
	C11.2,12.3,11.4,12.1,11.4,12.1z"/>
</svg>
