<?xml version="1.0" encoding="utf-8"?>
<!-- Generator: Adobe Illustrator 21.1.0, SVG Export Plug-In . SVG Version: 6.00 Build 0)  -->
<svg version="1.1" id="Layer_1" xmlns="http://www.w3.org/2000/svg" xmlns:xlink="http://www.w3.org/1999/xlink" x="0px" y="0px"
	 viewBox="0 0 25 25" style="enable-background:new 0 0 25 25;" xml:space="preserve">
<g>
	<path d="M19,16.5c-0.8-0.8-1.8-0.8-2.6,0c-0.6,0.6-1.2,1.2-1.8,1.9c-0.2,0.2-0.3,0.2-0.5,0.1c-0.4-0.2-0.8-0.4-1.2-0.6
		c-1.8-1.1-3.3-2.6-4.6-4.2c-0.7-0.8-1.2-1.7-1.7-2.7c-0.1-0.2-0.1-0.3,0.1-0.5c0.6-0.6,1.2-1.2,1.8-1.8c0.8-0.9,0.8-1.8,0-2.7
		C7.9,5.5,7.4,5,7,4.5C6.5,4,6,3.5,5.5,3C4.6,2.2,3.6,2.2,2.8,3C2.2,3.6,1.6,4.2,1,4.8C0.4,5.4,0.1,6.1,0,6.9
		c-0.1,1.3,0.2,2.5,0.7,3.7c0.9,2.5,2.3,4.7,4,6.7c2.3,2.7,5,4.9,8.2,6.4c1.4,0.7,2.9,1.2,4.5,1.3c1.1,0.1,2.1-0.2,2.9-1.1
		c0.5-0.6,1.1-1.1,1.7-1.7c0.8-0.8,0.8-1.9,0-2.7C21,18.5,20,17.5,19,16.5L19,16.5z M18,12.4l1.9-0.3c-0.3-1.8-1.1-3.4-2.4-4.6
		c-1.3-1.3-3-2.2-4.9-2.4l-0.3,1.9c1.4,0.2,2.7,0.9,3.8,1.9C17.1,9.8,17.8,11,18,12.4L18,12.4z M21,4c-2.2-2.2-5-3.6-8.1-4l-0.3,1.9
		c2.7,0.4,5.1,1.6,7,3.5c1.8,1.8,3,4.1,3.4,6.6l1.9-0.3C24.5,8.8,23.1,6.1,21,4z"/>
</g>
</svg>
