<?xml version="1.0" encoding="utf-8"?>
<!-- Generator: Adobe Illustrator 21.1.0, SVG Export Plug-In . SVG Version: 6.00 Build 0)  -->
<svg version="1.1" id="Layer_1" xmlns="http://www.w3.org/2000/svg" xmlns:xlink="http://www.w3.org/1999/xlink" x="0px" y="0px"
	 viewBox="0 0 80 80" style="enable-background:new 0 0 80 80;" xml:space="preserve">
<path d="M40,0C17.9,0,0,17.9,0,40s17.9,40,40,40s40-17.9,40-40S62.1,0,40,0z M53.8,42.1l-20,12.5c-1.2,0.7-2.7,0.4-3.4-0.8
	C30.1,53.4,30,53,30,52.5v-25c0-1.4,1.1-2.5,2.5-2.5c0.5,0,0.9,0.1,1.3,0.4l20,12.5c1.2,0.7,1.5,2.3,0.8,3.5
	C54.4,41.6,54.1,41.9,53.8,42.1z"/>
</svg>
