<?xml version="1.0" encoding="utf-8"?>
<!-- Generator: Adobe Illustrator 21.1.0, SVG Export Plug-In . SVG Version: 6.00 Build 0)  -->
<svg version="1.1" id="Layer_1" xmlns="http://www.w3.org/2000/svg" xmlns:xlink="http://www.w3.org/1999/xlink" x="0px" y="0px"
	 viewBox="0 0 26 26" style="enable-background:new 0 0 26 26;" xml:space="preserve">
<path d="M25.1,23.1l-0.4,0.4v0L25.1,23.1l-5.7-5.7c1.4-1.8,2.1-4.1,2.1-6.3c0-2.8-1.1-5.5-3.1-7.4c-1.9-2-4.6-3.1-7.4-3.1
	c0,0,0,0-0.1,0c-2.8,0-5.5,1.1-7.4,3.1c-2,2-3.1,4.7-3.1,7.4c0,2.8,1.1,5.5,3.1,7.4c2,2,4.7,3.1,7.4,3.1c2.3,0,4.5-0.7,6.3-2.1
	l5.7,5.7c0.3,0.3,0.6,0.4,1,0.4c0.4,0,0.7-0.1,1-0.4l0.1-0.1c0.2-0.3,0.4-0.6,0.4-1C25.5,23.7,25.4,23.3,25.1,23.1z M18.6,11
	c0,4.2-3.4,7.6-7.6,7.6c-4.2,0-7.6-3.4-7.6-7.6c0-4.2,3.4-7.6,7.6-7.6C15.2,3.4,18.6,6.8,18.6,11z"/>
</svg>
