<?xml version="1.0" encoding="utf-8"?>
<!-- Generator: Adobe Illustrator 21.1.0, SVG Export Plug-In . SVG Version: 6.00 Build 0)  -->
<svg version="1.1" id="Layer_1" xmlns="http://www.w3.org/2000/svg" xmlns:xlink="http://www.w3.org/1999/xlink" x="0px" y="0px"
	 viewBox="0 0 19 23" style="enable-background:new 0 0 19 23;" xml:space="preserve">
<g>
	<path d="M18.7,6.5L18.7,6.5c0-0.2,0-0.5,0-0.7c0-1.2-1-2.2-2.2-2.3c-2.5-0.1-4.5-1-6.1-2.6l0,0c-0.5-0.5-1.4-0.5-1.9,0l0,0
		C6.7,2.6,4.8,3.4,2.2,3.5C1,3.6,0.1,4.6,0,5.8C0,6,0,6.3,0,6.5l0,0C0,9.1-0.1,12.3,1,15.2c0.6,1.6,1.5,3,2.7,4.1
		c1.3,1.3,3.1,2.3,5.2,3.1c0.3,0.1,0.6,0.1,0.8,0.1c0.1,0,0.1,0,0.2-0.1c2.1-0.7,3.9-1.8,5.2-3.1c1.2-1.1,2.1-2.5,2.7-4.1
		C18.8,12.3,18.7,9.1,18.7,6.5L18.7,6.5z M16.5,14.8c-1.1,3.1-3.4,5.2-7.1,6.4c-0.1,0-0.1,0-0.2,0c-3.6-1.3-5.9-3.4-7.1-6.4
		c-1-2.7-0.9-5.6-0.9-8.2v0c0-0.2,0-0.5,0-0.7c0-0.5,0.4-1,1-1C3.7,4.7,5,4.5,6.1,4c1.2-0.5,2.2-1.2,3.1-2.1c0,0,0.1,0,0.2,0
		c1,0.9,2,1.6,3.1,2.1c1.2,0.5,2.4,0.8,3.8,0.8c0.5,0,1,0.5,1,1c0,0.3,0,0.5,0,0.7C17.4,9.1,17.5,12.1,16.5,14.8z"/>
	<path d="M9.3,6c-3,0-5.5,2.5-5.5,5.5c0,3,2.5,5.5,5.5,5.5c3,0,5.5-2.5,5.5-5.5C14.8,8.5,12.4,6.1,9.3,6z M9.3,15.7
		c-2.3,0-4.2-1.9-4.2-4.2c0-2.3,1.9-4.2,4.2-4.2c2.3,0,4.2,1.9,4.2,4.2C13.5,13.8,11.7,15.7,9.3,15.7L9.3,15.7z"/>
	<path d="M10.9,9.8l-2.5,2.5l-0.7-0.7c-0.3-0.2-0.7-0.2-0.9,0c-0.2,0.2-0.2,0.6,0,0.9l1.1,1.1c0.2,0.3,0.7,0.3,0.9,0c0,0,0,0,0,0
		l3-3c0.3-0.3,0.3-0.7,0-0.9S11.2,9.6,10.9,9.8z"/>
</g>
</svg>
