<?xml version="1.0" encoding="utf-8"?>
<!-- Generator: Adobe Illustrator 21.1.0, SVG Export Plug-In . SVG Version: 6.00 Build 0)  -->
<svg version="1.1" id="Layer_1" xmlns="http://www.w3.org/2000/svg" xmlns:xlink="http://www.w3.org/1999/xlink" x="0px" y="0px"
	 viewBox="0 0 34 48" style="enable-background:new 0 0 34 48;" xml:space="preserve">
<style type="text/css">
	.st0{fill:#FFFFFF;}
</style>
<path d="M17,0C7.7,0,0.2,7.6,0.2,16.9S11.8,48,17,48s16.8-21.7,16.8-31C33.8,7.6,26.3,0,17,0L17,0z M17,28.7
	c-6.3,0-11.4-5.1-11.4-11.5c0-6.3,5.1-11.5,11.4-11.5c6.3,0,11.4,5.1,11.4,11.5C28.4,23.5,23.3,28.7,17,28.7z"/>
<path class="st0" d="M17,5.7c-6.3,0-11.4,5.1-11.4,11.5c0,6.3,5.1,11.5,11.4,11.5c6.3,0,11.4-5.1,11.4-11.5
	C28.4,10.8,23.3,5.7,17,5.7z M22.7,17.7c0,0.8-0.6,1.5-1.5,1.5c0,0,0,0,0,0h-2.3v2.3c0,0.8-0.7,1.5-1.5,1.5h-1
	c-0.8,0-1.5-0.7-1.5-1.5c0,0,0,0,0,0v-2.3h-2.3c-0.8,0-1.5-0.7-1.5-1.5c0,0,0,0,0,0v-1c0-0.8,0.7-1.5,1.5-1.5h2.3v-2.3
	c0-0.8,0.7-1.5,1.5-1.5h1c0.8,0,1.5,0.7,1.5,1.5c0,0,0,0,0,0v2.3h2.3c0.8,0,1.5,0.7,1.5,1.5c0,0,0,0,0,0L22.7,17.7L22.7,17.7z"/>
<path d="M21.3,15.2h-2.3v-2.3c0-0.8-0.6-1.5-1.5-1.5c0,0,0,0,0,0h-1c-0.8,0-1.5,0.7-1.5,1.5v2.3h-2.3c-0.8,0-1.5,0.7-1.5,1.5
	c0,0,0,0,0,0v1c0,0.8,0.7,1.5,1.5,1.5h2.3v2.3c0,0.8,0.7,1.5,1.5,1.5h1c0.8,0,1.5-0.7,1.5-1.5v-2.3h2.3c0.8,0,1.5-0.7,1.5-1.5
	c0,0,0,0,0,0v-1C22.7,15.9,22.1,15.2,21.3,15.2C21.3,15.2,21.3,15.2,21.3,15.2z"/>
</svg>
