<?xml version="1.0" encoding="utf-8"?>
<!-- Generator: Adobe Illustrator 21.1.0, SVG Export Plug-In . SVG Version: 6.00 Build 0)  -->
<svg version="1.1" id="Layer_1" xmlns="http://www.w3.org/2000/svg" xmlns:xlink="http://www.w3.org/1999/xlink" x="0px" y="0px"
	 viewBox="0 0 71 78" style="enable-background:new 0 0 71 78;" xml:space="preserve">
<path d="M69.7,16.7h-5.2c-0.7,0-1.3,0.6-1.3,1.3v1.3c0-0.7-0.6-1.3-1.3-1.3h-3.9c-0.7,0-1.2,0.5-1.3,1.2l-0.1,1.4h-2.5V18
	c0-0.7-0.6-1.3-1.3-1.3h-5.2c-0.7,0-1.3,0.6-1.3,1.3v7.7c0,0.7,0.6,1.3,1.3,1.3H53c0.7,0,1.3-0.6,1.3-1.3v-2.6h2.3l-0.7,10.5
	c-0.1,1.3-1.2,2.4-2.6,2.3h-8.1v-0.6c0-0.5-0.3-0.9-0.7-1.2c-1.7-0.8-3.6-1.4-5.5-1.7c-0.2,0-0.4,0-0.6,0.1
	c-0.7-0.2-1.4-0.4-2.2-0.5v-3.5c0.4-0.2,0.8-0.4,1.1-0.7c4.3-3,7.9-6.1,7.9-12.6v-1.3c0-3.9-1.6-7.7-4.5-10.3
	c-5-4.7-12.6-5.1-18.2-1.1c-5.6-1-10.9,2.7-12,8.3c-0.1,0.6-0.2,1.2-0.2,1.8v19.3c0,0.7,0.6,1.3,1.3,1.3c4.9,0,9.7-1.9,13.2-5.3
	c0.3,0.2,0.6,0.4,0.9,0.6v3.5c-0.7,0.1-1.5,0.2-2.2,0.5c-0.2-0.1-0.4-0.1-0.6-0.1c-1.9,0.3-3.8,0.9-5.5,1.7
	c-0.4,0.2-0.7,0.7-0.7,1.2v0C12,41,9.3,48.1,9.2,55.4c0,3.5,0.2,7.6,1.2,10.3H7.9v-2.6c0-0.7-0.6-1.3-1.3-1.3H1.4
	c-0.7,0-1.3,0.6-1.3,1.3v7.7c0,0.7,0.6,1.3,1.3,1.3h5.2c0.7,0,1.3-0.6,1.3-1.3v-2.6h7.4c-1.4,2.8-2.2,5.9-2.2,9h2.6
	c0-2.2,0.4-4.4,1.3-6.5v0c0,0.7,0.6,1.3,1.3,1.3h5.2c0.7,0,1.3-0.6,1.3-1.3v-5.2h16.1l0.7,0.9c2.4,3,3.7,6.8,3.7,10.7h2.6
	c0-4.5-1.5-8.8-4.3-12.3l-1-1.2L42,62.3c-1.2-3.6-1.1-7.5,0.3-11l0.1-0.2c1.6-0.5,2.7-1.9,2.8-3.6v-0.1l14-3c2.4-0.5,4.1-2.6,4.1-5
	V25.8c0,0.7,0.6,1.3,1.3,1.3h5.2c0.7,0,1.3-0.6,1.3-1.3V18C71,17.3,70.4,16.7,69.7,16.7L69.7,16.7z M51.7,24.5h-2.6v-5.2h2.6V24.5z
	 M5.3,69.5H2.7v-5.2h2.6V69.5L5.3,69.5z M15.3,65.1l0.1,0.5h-2.1c-0.7-1-1.5-3.7-1.5-10.3c0.1-5.7,1.9-11.2,5.2-15.8v7.8
	C15.2,51.2,14.6,61.2,15.3,65.1z M30.3,2.6c6.1-0.4,11.5,4,12.3,10.1l-7-3.5C35.3,9,35,9,34.7,9l-15,2.6C20.8,6.6,25.1,2.9,30.3,2.6
	z M13,30.9v-18c0-4,3-7.3,7-7.7c-2.1,2.5-3.2,5.7-3.1,9v1.3c0,5.5,2.6,8.6,6,11.2C20.1,29.1,16.7,30.6,13,30.9L13,30.9z M19.5,15.5
	v-1.1l15.3-2.7l7.9,4c0,4.8-2.2,7.2-6.8,10.4c-2.9,2-6.7,2-9.6,0C21.7,22.8,19.5,20.4,19.5,15.5z M24.6,35.1
	c0.8-0.2,1.7-0.3,2.6-0.3c0.7,0,1.3-0.6,1.3-1.3v-3.8c1.7,0.4,3.5,0.4,5.2,0v3.8c0,0.7,0.6,1.3,1.3,1.3c0.9,0,1.7,0.1,2.6,0.3v2.1
	l-6.4,1.4l-6.4-1.4C24.6,37.2,24.6,35.1,24.6,35.1z M17.6,62c-0.1-3.9,0.3-7.7,1-11.5c0.3,0.2,0.7,0.4,1.1,0.6
	c1.3,3.5,1.4,7.3,0.2,10.8h-1.7C18,61.8,17.8,61.9,17.6,62z M22.1,69.5h-2.6v-5.2h2.6V69.5z M24.6,63.1c0-0.7-0.6-1.3-1.3-1.3h-0.8
	c1-3.4,1-6.9,0-10.3h17c-1.2,3.8-1.2,7.8,0.1,11.6H24.6L24.6,63.1z M42.7,47.5c0,0.7-1.1,1.5-2.6,1.5h-18c-1.5,0-2.6-0.8-2.6-1.5
	V36.3c0.8-0.3,1.7-0.6,2.6-0.8v2.7c0,0.6,0.4,1.1,1,1.3l7.7,1.7c0.2,0,0.4,0,0.5,0l7.7-1.7c0.6-0.1,1-0.7,1-1.3v-2.7
	c0.9,0.2,1.7,0.5,2.6,0.8C42.7,36.3,42.7,47.5,42.7,47.5z M58.7,41.9l-13.4,2.9v-6.1h8.1c2.7,0,4.9-2,5.1-4.7l0.9-13.3h1.4v18.8
	C60.7,40.6,59.8,41.6,58.7,41.9L58.7,41.9z M68.4,24.5h-2.6v-5.2h2.6V24.5z"/>
</svg>
