<?xml version="1.0" encoding="utf-8"?>
<!-- Generator: Adobe Illustrator 21.1.0, SVG Export Plug-In . SVG Version: 6.00 Build 0)  -->
<svg version="1.1" id="Layer_1" xmlns="http://www.w3.org/2000/svg" xmlns:xlink="http://www.w3.org/1999/xlink" x="0px" y="0px"
	 viewBox="0 0 25 18" style="enable-background:new 0 0 25 18;" xml:space="preserve">
<path d="M19.6,0.3H5.3c-2.8,0-5.1,2.2-5.1,5v7c0,2.8,2.3,5,5.1,5h14.3c2.8,0,5.1-2.2,5.1-5v-7C24.7,2.6,22.4,0.3,19.6,0.3z
	 M16.2,9.2l-6.7,3.1c-0.1,0.1-0.3,0-0.4-0.1c0,0,0-0.1,0-0.1V5.6c0-0.2,0.2-0.3,0.4-0.2l6.7,3.3C16.4,8.8,16.4,9.1,16.2,9.2z"/>
</svg>
